<svg width="56" height="56" viewBox="0 0 56 56" fill="none" xmlns="http://www.w3.org/2000/svg">
<rect width="56" height="56" rx="28" fill="#161817"/>
<rect x="0.5" y="0.5" width="55" height="55" rx="27.5" stroke="white" stroke-opacity="0.2"/>
<path d="M31.1089 39.9995H40.7565C41.4437 39.9995 42.0009 39.4244 42.0009 38.715V28.7531C42.0009 28.0437 41.4437 27.4685 40.7565 27.4685H34.2734C34.3244 23.7253 36.8242 20.5842 40.1912 19.6808C40.418 19.6201 40.8825 19.5289 40.8825 19.5289C40.8825 19.5289 40.88 19.5228 40.8794 19.5219C41.5088 19.4579 42.0009 18.9123 42.0009 18.2463V16.2886C42.0009 15.5792 41.4437 15.004 40.7565 15.004C40.7565 15.004 40.4933 14.9957 40.4062 15.0031C40.0176 15.0368 39.896 15.0878 39.6453 15.1421C34.1007 16.3445 29.9176 21.4054 29.8644 27.4685H29.8613L29.8644 38.715C29.8644 39.4244 30.4216 39.9995 31.1089 39.9995Z" fill="url(#paint0_linear_1005_249)"/>
<path d="M14.0031 38.7154C14.0031 39.4248 14.5603 39.9999 15.2475 39.9999H24.8949C25.5821 39.9999 26.1393 39.4248 26.1393 38.7154V28.7535C26.1393 28.0441 25.5821 27.4689 24.8949 27.4689H18.4121C18.4631 23.7254 20.9628 20.5843 24.3296 19.6812C24.5564 19.6205 25.0212 19.5293 25.0212 19.5293C25.0212 19.5293 25.0187 19.5229 25.0181 19.5219C25.6468 19.458 26.1393 18.9124 26.1393 18.246V16.2883C26.1393 15.5789 25.5821 15.0038 24.8949 15.0038C24.8949 15.0038 24.6317 14.9957 24.5449 15.0031C24.156 15.0368 24.0347 15.0879 23.7839 15.1419C18.2394 16.3445 14.056 21.4054 14.0031 27.4693H14L14.0031 38.7154Z" fill="url(#paint1_linear_1005_249)"/>
<defs>
<linearGradient id="paint0_linear_1005_249" x1="35.9311" y1="-6.78984" x2="35.9311" y2="59.6178" gradientUnits="userSpaceOnUse">
<stop stop-color="#FCCC77"/>
<stop offset="0.5" stop-color="#F28B83"/>
<stop offset="1" stop-color="#EF786F"/>
</linearGradient>
<linearGradient id="paint1_linear_1005_249" x1="20.0696" y1="-6.79018" x2="20.0696" y2="59.6185" gradientUnits="userSpaceOnUse">
<stop stop-color="#FCCC77"/>
<stop offset="0.5" stop-color="#F28B83"/>
<stop offset="1" stop-color="#EF786F"/>
</linearGradient>
</defs>
</svg>
