<svg width="56" height="56" viewBox="0 0 56 56" fill="none" xmlns="http://www.w3.org/2000/svg">
<rect width="56" height="56" rx="28" fill="#161817"/>
<rect width="56" height="56" rx="28" fill="url(#paint0_linear_1005_243)" fill-opacity="0.4" style="mix-blend-mode:soft-light"/>
<rect x="0.5" y="0.5" width="55" height="55" rx="27.5" stroke="white" stroke-opacity="0.2"/>
<g clip-path="url(#clip0_1005_243)">
<path d="M34.5 17.0002C35.854 17.0002 37.104 17.3442 38.25 18.0312C39.3801 18.6821 40.3181 19.6201 40.969 20.7502C41.6523 21.881 42.0091 23.179 42 24.5002C42 25.5832 41.604 26.7402 40.812 27.9692C40.4386 28.5412 40.0099 29.0751 39.532 29.5632L28 41.0932L16.469 29.5322C15.9858 29.0602 15.5562 28.5364 15.188 27.9702C14.395 26.7392 14 25.5832 14 24.5002C14 23.1462 14.333 21.8962 15 20.7502C15.6684 19.6231 16.6154 18.6868 17.75 18.0312C18.8809 17.3479 20.1788 16.9911 21.5 17.0002C22.77 17.0002 24.073 17.3442 25.406 18.0312C26.3369 18.5348 27.2072 19.1431 28 19.8442C28.7928 19.1431 29.6631 18.5348 30.594 18.0312C31.927 17.3442 33.229 17.0002 34.5 17.0002Z" fill="url(#paint1_linear_1005_243)"/>
</g>
<defs>
<linearGradient id="paint0_linear_1005_243" x1="-23.5289" y1="28.0029" x2="27.2708" y2="79.4635" gradientUnits="userSpaceOnUse">
<stop/>
<stop offset="1" stop-color="white"/>
</linearGradient>
<linearGradient id="paint1_linear_1005_243" x1="28" y1="-3.99983" x2="28" y2="60.0002" gradientUnits="userSpaceOnUse">
<stop stop-color="#FCCC77"/>
<stop offset="0.5" stop-color="#F28B83"/>
<stop offset="1" stop-color="#EF786F"/>
</linearGradient>
<clipPath id="clip0_1005_243">
<rect width="28" height="25" fill="white" transform="translate(14 17)"/>
</clipPath>
</defs>
</svg>
