<svg width="76" height="32" viewBox="0 0 76 32" fill="none" xmlns="http://www.w3.org/2000/svg">
<path d="M32.6791 26.2062V0.785835C32.8616 -0.635097 27.393 0.368679 26.8129 0.0818858C24.8575 -0.0549929 26.7542 30.4233 26.1089 31.1273C25.5419 32.3005 35.9838 32.2484 35.4167 31.1273C35.4688 25.0655 35.7296 28.4223 32.6791 26.2062Z" fill="white"/>
<path d="M22.7091 31.8763C22.1681 31.5374 16.543 32.5738 16.7255 31.2571C17.2991 30.6379 15.6044 0.00313769 17.3773 0.12698C17.9183 0.465918 23.5434 -0.570449 23.3609 0.778784C22.7547 1.36541 24.4494 32.0002 22.7091 31.8763Z" fill="white"/>
<path d="M6.10716 0.08753C5.45535 0.446022 -0.306593 -0.727223 0.0127906 0.863178L3.27181 31.2046C3.38261 32.3388 11.6996 32.1888 11.8104 31.2046L15.0695 0.863178C15.3888 -0.688114 9.58778 0.38736 8.97509 0.08753C6.85021 0.08753 9.68555 20.9452 7.56068 20.9452C5.4358 20.9452 8.219 0.133156 6.10716 0.08753Z" fill="white"/>
<path d="M69.1339 31.8763C69.6749 31.5374 75.2999 32.5738 75.1174 31.2571C74.5438 30.6379 76.2385 0.00313769 74.4656 0.12698C73.9246 0.465918 68.2996 -0.570449 68.4821 0.778784C69.0687 1.36541 67.374 32.0002 69.1339 31.8763Z" fill="white"/>
<path d="M57.8825 0.08753C57.2633 0.446022 51.4687 -0.727223 51.7881 0.863178L55.0471 31.2046C55.1579 32.3388 63.4749 32.1888 63.5857 31.2046L66.8448 0.863178C67.1641 -0.688114 61.3631 0.38736 60.7504 0.08753C58.6255 0.08753 61.4609 20.9452 59.336 20.9452C57.2111 20.9452 60.0139 0.133156 57.8825 0.08753Z" fill="white"/>
<path d="M46.2785 31.8303C46.8912 31.4914 52.6923 32.6255 52.3729 31.0547L49.1139 0.713243C49.2899 -0.590364 41.8332 0.374305 41.2922 0.0614397C39.5715 -0.153655 37.9615 30.4159 37.3358 31.0351C37.1468 32.3387 44.1667 32.2084 44.1341 31.1068C44.4013 30.455 43.4301 25.6512 44.8902 25.8403C46.7543 26.0749 44.3622 31.6218 46.2785 31.8303ZM44.095 20.0979C43.8799 19.0615 43.3389 10.6532 44.7989 10.9726C45.9591 10.1188 45.014 24.6214 44.095 20.0979Z" fill="white"/>
</svg>
