<svg width="46" height="46" viewBox="0 0 46 46" fill="none" xmlns="http://www.w3.org/2000/svg">
<rect width="46" height="46" rx="23" fill="#EF786F" fill-opacity="0.2"/>
<g clip-path="url(#clip0_1029_667)">
<path d="M22.9998 21.036C23.5231 21.0339 24.0243 20.8242 24.3933 20.453C24.7622 20.0818 24.9688 19.5794 24.9678 19.056C24.9677 18.6594 24.8498 18.2718 24.629 17.9424C24.4081 17.613 24.0943 17.3567 23.7275 17.2061C23.3606 17.0554 22.9573 17.0172 22.5687 17.0964C22.1801 17.1755 21.8238 17.3684 21.5451 17.6505C21.2663 17.9326 21.0778 18.2912 21.0033 18.6807C20.9289 19.0703 20.9719 19.4731 21.127 19.8382C21.2821 20.2032 21.5421 20.5138 21.8742 20.7307C22.2062 20.9475 22.5952 21.0608 22.9918 21.056L22.9998 21.036Z" fill="#EF786F"/>
<path d="M23 11C20.6266 11 18.3066 11.7038 16.3332 13.0224C14.3598 14.3409 12.8217 16.2151 11.9135 18.4078C11.0052 20.6005 10.7676 23.0133 11.2306 25.3411C11.6936 27.6689 12.8365 29.8071 14.5147 31.4853C16.193 33.1635 18.3311 34.3064 20.6589 34.7694C22.9867 35.2324 25.3995 34.9948 27.5922 34.0866C29.7849 33.1783 31.6591 31.6402 32.9776 29.6668C34.2962 27.6935 35 25.3734 35 23C35 19.8174 33.7357 16.7652 31.4853 14.5147C29.2349 12.2643 26.1826 11 23 11ZM23 15C23.5331 15.0021 24.0606 15.1094 24.5522 15.3157C25.0438 15.522 25.4899 15.8233 25.8648 16.2023C26.2397 16.5814 26.5362 17.0307 26.7372 17.5245C26.9381 18.0183 27.0397 18.5469 27.036 19.08V19.104C27.025 19.9027 26.7779 20.6802 26.3259 21.3387C25.8739 21.9973 25.2372 22.5074 24.4959 22.8048C23.7546 23.1023 22.9419 23.1738 22.1601 23.0103C21.3783 22.8469 20.6623 22.4558 20.1022 21.8863C19.5422 21.3169 19.1631 20.5944 19.0128 19.81C18.8624 19.0255 18.9475 18.2141 19.2573 17.4779C19.5671 16.7417 20.0877 16.1136 20.7537 15.6727C21.4197 15.2318 22.2013 14.9977 23 15ZM27.532 24.68C27.0434 25.1802 26.4526 25.569 25.8 25.82C25.1547 26.0518 24.4827 26.201 23.8 26.264C23.904 26.376 23.952 26.432 24.008 26.496C24.932 27.424 25.852 28.34 26.772 29.272C26.9216 29.4015 27.0248 29.5762 27.066 29.7697C27.1071 29.9632 27.084 30.1649 27 30.344C26.9115 30.5384 26.7674 30.7022 26.5859 30.8147C26.4043 30.9272 26.1935 30.9833 25.98 30.976C25.729 30.9561 25.4954 30.8401 25.328 30.652C24.632 29.952 23.924 29.268 23.244 28.548C23.044 28.34 22.952 28.38 22.776 28.548C22.0773 29.268 21.3693 29.9787 20.652 30.68C20.5209 30.8277 20.3441 30.9273 20.1498 30.9628C19.9555 30.9984 19.7549 30.9678 19.58 30.876C19.3888 30.7878 19.2273 30.6459 19.1151 30.4677C19.0029 30.2895 18.9449 30.0826 18.948 29.872C18.9684 29.6128 19.0889 29.3718 19.284 29.2L22.016 26.468C22.0957 26.4117 22.1671 26.3443 22.228 26.268C21.0311 26.1971 19.8805 25.7802 18.916 25.068C18.796 24.976 18.676 24.88 18.568 24.78C18.3868 24.6191 18.2707 24.3974 18.2417 24.1569C18.2127 23.9163 18.2728 23.6734 18.4106 23.474C18.5484 23.2747 18.7544 23.1327 18.9898 23.0748C19.2251 23.017 19.4735 23.0473 19.688 23.16C19.7844 23.2069 19.8767 23.2618 19.964 23.324C20.8465 23.9255 21.8867 24.2535 22.9545 24.267C24.0224 24.2805 25.0706 23.9789 25.968 23.4C26.1412 23.2627 26.3396 23.1608 26.552 23.1C26.7491 23.0419 26.9599 23.0517 27.1507 23.1279C27.3415 23.2041 27.5012 23.3422 27.604 23.52C27.7364 23.6893 27.8032 23.9006 27.7921 24.1152C27.7811 24.3298 27.693 24.5332 27.544 24.688L27.532 24.68Z" fill="#EF786F"/>
</g>
<defs>
<clipPath id="clip0_1029_667">
<rect width="24" height="24" fill="white" transform="translate(11 11)"/>
</clipPath>
</defs>
</svg>
