<svg width="46" height="46" viewBox="0 0 46 46" fill="none" xmlns="http://www.w3.org/2000/svg">
<rect width="46" height="46" rx="23" fill="#EF786F" fill-opacity="0.2"/>
<path d="M31.4 14.6C29.4 12.2 26.2 11 23 11C19.8 11 16.6 12.2 14.6 14.6C12.2 16.6 11 19.8 11 23C11 26.2 12.2 29.4 14.6 31.4C16.6 33.8 19.8 35 23 35C26.2 35 29.4 33.8 31.4 31.4C33.8 29.4 35 26.2 35 23C35 19.8 33.8 16.6 31.4 14.6ZM26.6 29C26.6 29.4 26.2 29.4 26.2 29.4L23 27C23 27 22.6 27 22.2 27L20.6 28.6C20.2 28.6 20.2 28.6 20.2 28.6L19 24.6L15.8 23.4C15.4 23.4 15.4 23 15.8 22.6L28.6 17.8C29 17.8 29 17.8 29 18.2L26.6 29Z" fill="#EF786F"/>
<path d="M19.7984 23.7993C19.3984 23.7993 19.3984 24.1993 19.3984 24.5993L20.1984 26.9993H20.5984V25.7993C20.5984 25.3993 20.5984 25.3993 20.9984 24.9993L26.1984 20.1993L19.7984 23.7993Z" fill="#EF786F"/>
</svg>
