<svg width="46" height="46" viewBox="0 0 46 46" fill="none" xmlns="http://www.w3.org/2000/svg">
<rect width="46" height="46" rx="23" fill="#EF786F" fill-opacity="0.2"/>
<path d="M23 11C21.4241 11 19.8637 11.3104 18.4078 11.9134C16.9519 12.5165 15.629 13.4004 14.5147 14.5147C13.4004 15.629 12.5165 16.9519 11.9135 18.4078C11.3104 19.8637 11 21.4241 11 23C11 24.5759 11.3104 26.1363 11.9135 27.5922C12.5165 29.0481 13.4004 30.371 14.5147 31.4853C15.629 32.5996 16.9519 33.4835 18.4078 34.0866C19.8637 34.6896 21.4241 35 23 35C26.1825 35 29.2348 33.7357 31.4853 31.4853C33.7357 29.2348 35 26.1826 35 23C35 19.8174 33.7357 16.7652 31.4853 14.5147C29.2348 12.2643 26.1825 11 23 11ZM29.0963 24.3155C29.6417 24.861 30.2353 25.3743 30.7486 25.9679C30.9572 26.2406 31.1818 26.5134 31.3422 26.8342C31.5668 27.2674 31.3422 27.7647 30.9572 27.7968H28.5026C27.8609 27.8449 27.3636 27.5882 26.9304 27.1551L25.9519 26.0642C25.8235 25.9198 25.6791 25.7914 25.5026 25.6791C25.1818 25.4545 24.8769 25.5187 24.7005 25.8717C24.4919 26.2246 24.4438 26.6257 24.4278 27.0267C24.4117 27.6043 24.2353 27.7647 23.6417 27.7807C22.4222 27.8765 21.2012 27.6144 20.1283 27.0267C19.1958 26.4621 18.3923 25.7079 17.77 24.8128C16.4866 23.0802 15.5241 21.1872 14.6417 19.246C14.4492 18.7968 14.5935 18.5722 15.0748 18.5562H17.4812C17.8021 18.5562 18.0268 18.7487 18.1551 19.0535C18.5883 20.1283 19.1176 21.139 19.7753 22.1016C19.9679 22.3422 20.1443 22.5829 20.401 22.7594C20.6898 22.9679 20.8984 22.9037 21.0428 22.5829C21.123 22.3743 21.1551 22.1658 21.1712 21.9412C21.2353 21.2032 21.2513 20.4652 21.139 19.7112C21.0749 19.262 20.8182 18.9572 20.3369 18.861C20.1123 18.8289 20.1444 18.7326 20.2567 18.6043C20.4653 18.3636 20.6417 18.2193 21.0107 18.2193H23.8021C24.2352 18.3155 24.3315 18.508 24.3957 18.9572V22.0374C24.3957 22.2139 24.476 22.7273 24.7808 22.8396C25.0375 22.9198 25.1978 22.7112 25.3422 22.5668C25.9781 21.8468 26.5026 21.0357 26.8983 20.1604C27.0908 19.7754 27.2513 19.3743 27.4117 18.9733C27.524 18.6845 27.7166 18.5401 28.0535 18.5562H30.9411C31.3903 18.6364 31.5187 18.8449 31.3743 19.2781C31.1497 19.9679 30.7326 20.5615 30.3154 21.123L28.9358 22.9679C28.5347 23.5294 28.5669 23.8182 29.0802 24.3155" fill="#EF786F"/>
</svg>
