<svg width="46" height="46" viewBox="0 0 46 46" fill="none" xmlns="http://www.w3.org/2000/svg">
<rect width="46" height="46" rx="23" fill="#B9E4ED" fill-opacity="0.2"/>
<path d="M17.3047 23.8971H18.2673V29.0308H19.1496V23.8971H20.1122V23.0469H17.3047V23.8971Z" fill="white"/>
<path d="M24.9258 24.5228C24.621 24.5228 24.3483 24.6832 24.0756 25.0041V23.0469H23.2734V29.0469H24.0756V28.6137C24.3483 28.9346 24.637 29.095 24.9258 29.095C25.2466 29.095 25.4552 28.9346 25.5675 28.6137C25.6157 28.4052 25.6477 28.1164 25.6477 27.6993V25.9346C25.6477 25.5014 25.6157 25.1966 25.5675 25.0201C25.4552 24.6993 25.2466 24.5228 24.9258 24.5228ZM24.8617 27.7795C24.8617 28.1806 24.7332 28.3891 24.4926 28.3891C24.3643 28.3891 24.22 28.325 24.0756 28.1806V25.4533C24.236 25.3089 24.3643 25.2447 24.4926 25.2447C24.7332 25.2447 24.8617 25.4533 24.8617 25.8544V27.7795Z" fill="white"/>
<path d="M21.7483 27.9898C21.5878 28.2465 21.4114 28.3588 21.2509 28.3588C21.1386 28.3588 21.0905 28.2946 21.0584 28.1823V24.5566H20.2402V28.0861C20.2402 28.4069 20.2723 28.6155 20.3044 28.7438C20.4006 28.9844 20.5771 29.0807 20.8338 29.0807C21.1386 29.0807 21.4435 28.9042 21.7643 28.5352V29.0165H22.5665V24.5566H21.7643L21.7483 27.9898Z" fill="white"/>
<path d="M22.4714 20.4491C22.7441 20.4491 22.8725 20.2405 22.8725 19.8234V17.9304C22.8725 17.5132 22.7441 17.3047 22.4714 17.3047C22.1987 17.3047 22.0703 17.5132 22.0703 17.9304V19.8234C22.0703 20.2405 22.1987 20.4651 22.4714 20.4651" fill="white"/>
<mask id="mask0_1029_283" style="mask-type:luminance" maskUnits="userSpaceOnUse" x="11" y="11" width="24" height="24">
<path d="M11 11H35V35H11V11Z" fill="white"/>
</mask>
<g mask="url(#mask0_1029_283)">
<path d="M23 11C24.5758 11 26.1363 11.3104 27.5922 11.9134C29.0481 12.5165 30.371 13.4004 31.4853 14.5147C32.5996 15.629 33.4835 16.9519 34.0866 18.4078C34.6896 19.8637 35 21.4241 35 23C35 24.5759 34.6896 26.1363 34.0866 27.5922C33.4835 29.0481 32.5996 30.371 31.4853 31.4853C30.371 32.5996 29.0481 33.4835 27.5922 34.0866C26.1363 34.6896 24.5758 35 23 35C19.8174 35 16.7652 33.7357 14.5147 31.4853C12.2643 29.2348 11 26.1826 11 23C11 19.8174 12.2643 16.7652 14.5147 14.5147C16.7652 12.2643 19.8174 11 23 11ZM24.3315 20.1765C24.3315 20.4973 24.3636 20.7219 24.4117 20.8503C24.492 21.0749 24.6685 21.1872 24.9412 21.1872C25.23 21.1872 25.5508 21.0107 25.8717 20.6417V21.123H26.6738V16.615H25.8717V20.0642C25.6952 20.3209 25.5187 20.4492 25.3583 20.4492C25.246 20.4492 25.1818 20.385 25.1658 20.2567V16.615H24.3315V20.1765ZM21.2514 19.6471C21.2514 20.1283 21.3315 20.4813 21.508 20.7059C21.7326 21.0267 22.0375 21.1872 22.4546 21.1872C22.8556 21.1872 23.1764 21.0267 23.401 20.7059C23.5615 20.4813 23.6417 20.1283 23.6417 19.6471V18.0749C23.6417 17.5936 23.5615 17.2406 23.401 17.016C23.2911 16.8665 23.1454 16.7469 22.9772 16.6684C22.809 16.5899 22.6237 16.555 22.4385 16.5668C22.0374 16.5668 21.7326 16.7273 21.508 17.016C21.3315 17.2406 21.2514 17.5936 21.2514 18.0749V19.6471ZM18.1069 15.0749L18.6845 16.7594C18.9732 17.5936 19.1658 18.2353 19.246 18.6684V21.107H20.1444V18.6684L21.2353 15.0749H20.3209L19.7112 17.4492L19.0696 15.0749H18.1069ZM29.4492 29.4171C29.6411 28.3752 29.7164 27.3152 29.6738 26.2567C29.6738 25.2139 29.6738 24.107 29.4492 23.0963C29.2888 22.3904 28.7112 21.861 28.0053 21.7808C26.3529 21.6043 24.6684 21.6043 23 21.6043C21.3315 21.6043 19.631 21.6043 17.9946 21.7808C17.2887 21.861 16.7113 22.3904 16.5508 23.0963C16.354 24.1376 16.2732 25.1975 16.3102 26.2567C16.3102 27.2995 16.3102 28.4064 16.5348 29.4171C16.6952 30.123 17.2887 30.6524 17.9786 30.7326C19.647 30.9091 21.3155 30.9251 23 30.9091C24.6684 30.9091 26.3369 30.9091 28.0053 30.7326C28.6951 30.6524 29.2888 30.123 29.4492 29.4171Z" fill="white"/>
</g>
<path d="M27.4927 24.5244C27.0756 24.5244 26.7547 24.6849 26.5301 24.9897C26.3536 25.2143 26.2734 25.5512 26.2734 26.0325V27.6047C26.2734 28.0859 26.3536 28.4228 26.5301 28.6474C26.7707 28.9683 27.0916 29.1127 27.5087 29.1127C27.7888 29.1275 28.0644 29.037 28.2811 28.8588C28.4979 28.6807 28.6402 28.4278 28.6799 28.1501L28.6959 27.6207V27.4924H27.8777L27.8617 28.0539C27.8135 28.2624 27.7013 28.3747 27.4927 28.3747C27.22 28.3747 27.0756 28.1661 27.0756 27.749V26.9469H28.6959V26.0325C28.6959 25.5512 28.6156 25.2143 28.4392 24.9736C28.3298 24.8275 28.1865 24.7102 28.0216 24.6319C27.8566 24.5536 27.6751 24.5167 27.4927 24.5244ZM27.9097 26.3052H27.0756V25.8881C27.0756 25.4549 27.22 25.2464 27.4927 25.2464C27.7654 25.2464 27.9097 25.4549 27.9097 25.8881V26.3052Z" fill="white"/>
</svg>
