<svg width="46" height="46" viewBox="0 0 46 46" fill="none" xmlns="http://www.w3.org/2000/svg">
<rect width="46" height="46" rx="23" fill="#EF786F" fill-opacity="0.2"/>
<path d="M17.3047 23.8981H18.2673V29.0318H19.1496V23.8981H20.1122V23.0479H17.3047V23.8981Z" fill="#EF786F"/>
<path d="M24.9268 24.5238C24.622 24.5238 24.3493 24.6842 24.0766 25.0051V23.0479H23.2744V29.0479H24.0766V28.6147C24.3493 28.9356 24.638 29.096 24.9268 29.096C25.2476 29.096 25.4562 28.9356 25.5685 28.6147C25.6166 28.4061 25.6487 28.1174 25.6487 27.7003V25.9356C25.6487 25.5024 25.6166 25.1976 25.5685 25.0211C25.4562 24.7003 25.2476 24.5238 24.9268 24.5238ZM24.8626 27.7805C24.8626 28.1815 24.7342 28.3901 24.4936 28.3901C24.3652 28.3901 24.2209 28.3259 24.0766 28.1815V25.4543C24.237 25.3099 24.3652 25.2457 24.4936 25.2457C24.7342 25.2457 24.8626 25.4543 24.8626 25.8553V27.7805Z" fill="#EF786F"/>
<path d="M21.7483 27.9898C21.5878 28.2465 21.4114 28.3588 21.2509 28.3588C21.1386 28.3588 21.0905 28.2946 21.0584 28.1823V24.5566H20.2402V28.0861C20.2402 28.4069 20.2723 28.6155 20.3044 28.7438C20.4006 28.9844 20.5771 29.0807 20.8338 29.0807C21.1386 29.0807 21.4435 28.9042 21.7643 28.5352V29.0165H22.5665V24.5566H21.7643L21.7483 27.9898Z" fill="#EF786F"/>
<path d="M22.4724 20.4496C22.7451 20.4496 22.8734 20.241 22.8734 19.8239V17.9308C22.8734 17.5137 22.7451 17.3052 22.4724 17.3052C22.1996 17.3052 22.0713 17.5137 22.0713 17.9308V19.8239C22.0713 20.241 22.1996 20.4656 22.4724 20.4656" fill="#EF786F"/>
<mask id="mask0_1029_681" style="mask-type:luminance" maskUnits="userSpaceOnUse" x="11" y="11" width="24" height="24">
<path d="M11 11H35V35H11V11Z" fill="white"/>
</mask>
<g mask="url(#mask0_1029_681)">
<path d="M23 11C24.5758 11 26.1363 11.3104 27.5922 11.9134C29.0481 12.5165 30.371 13.4004 31.4853 14.5147C32.5996 15.629 33.4835 16.9519 34.0866 18.4078C34.6896 19.8637 35 21.4241 35 23C35 24.5759 34.6896 26.1363 34.0866 27.5922C33.4835 29.0481 32.5996 30.371 31.4853 31.4853C30.371 32.5996 29.0481 33.4835 27.5922 34.0866C26.1363 34.6896 24.5758 35 23 35C19.8174 35 16.7652 33.7357 14.5147 31.4853C12.2643 29.2348 11 26.1826 11 23C11 19.8174 12.2643 16.7652 14.5147 14.5147C16.7652 12.2643 19.8174 11 23 11ZM24.3315 20.1765C24.3315 20.4973 24.3636 20.7219 24.4117 20.8503C24.492 21.0749 24.6685 21.1872 24.9412 21.1872C25.23 21.1872 25.5508 21.0107 25.8717 20.6417V21.123H26.6738V16.615H25.8717V20.0642C25.6952 20.3209 25.5187 20.4492 25.3583 20.4492C25.246 20.4492 25.1818 20.385 25.1658 20.2567V16.615H24.3315V20.1765ZM21.2514 19.6471C21.2514 20.1283 21.3315 20.4813 21.508 20.7059C21.7326 21.0267 22.0375 21.1872 22.4546 21.1872C22.8556 21.1872 23.1764 21.0267 23.401 20.7059C23.5615 20.4813 23.6417 20.1283 23.6417 19.6471V18.0749C23.6417 17.5936 23.5615 17.2406 23.401 17.016C23.2911 16.8665 23.1454 16.7469 22.9772 16.6684C22.809 16.5899 22.6237 16.555 22.4385 16.5668C22.0374 16.5668 21.7326 16.7273 21.508 17.016C21.3315 17.2406 21.2514 17.5936 21.2514 18.0749V19.6471ZM18.1069 15.0749L18.6845 16.7594C18.9732 17.5936 19.1658 18.2353 19.246 18.6684V21.107H20.1444V18.6684L21.2353 15.0749H20.3209L19.7112 17.4492L19.0696 15.0749H18.1069ZM29.4492 29.4171C29.6411 28.3752 29.7164 27.3152 29.6738 26.2567C29.6738 25.2139 29.6738 24.107 29.4492 23.0963C29.2888 22.3904 28.7112 21.861 28.0053 21.7808C26.3529 21.6043 24.6684 21.6043 23 21.6043C21.3315 21.6043 19.631 21.6043 17.9946 21.7808C17.2887 21.861 16.7113 22.3904 16.5508 23.0963C16.354 24.1376 16.2732 25.1975 16.3102 26.2567C16.3102 27.2995 16.3102 28.4064 16.5348 29.4171C16.6952 30.123 17.2887 30.6524 17.9786 30.7326C19.647 30.9091 21.3155 30.9251 23 30.9091C24.6684 30.9091 26.3369 30.9091 28.0053 30.7326C28.6951 30.6524 29.2888 30.123 29.4492 29.4171Z" fill="#EF786F"/>
</g>
<path d="M27.4917 24.5235C27.0746 24.5235 26.7537 24.6839 26.5291 24.9887C26.3526 25.2133 26.2725 25.5502 26.2725 26.0315V27.6037C26.2725 28.085 26.3526 28.4219 26.5291 28.6465C26.7697 28.9673 27.0906 29.1117 27.5077 29.1117C27.7879 29.1265 28.0634 29.036 28.2802 28.8578C28.4969 28.6797 28.6392 28.4269 28.6789 28.1491L28.6949 27.6197V27.4914H27.8767L27.8607 28.0529C27.8126 28.2614 27.7003 28.3737 27.4917 28.3737C27.219 28.3737 27.0746 28.1652 27.0746 27.7481V26.9459H28.6949V26.0315C28.6949 25.5502 28.6147 25.2133 28.4382 24.9727C28.3288 24.8265 28.1855 24.7092 28.0206 24.6309C27.8556 24.5526 27.6741 24.5158 27.4917 24.5235ZM27.9088 26.3042H27.0746V25.8871C27.0746 25.4539 27.219 25.2454 27.4917 25.2454C27.7645 25.2454 27.9088 25.4539 27.9088 25.8871V26.3042Z" fill="#EF786F"/>
</svg>
